<svg preserveAspectRatio="none" overflow="visible" style="display: block;" width="36" height="36" viewBox="0 0 36 36" fill="none" xmlns="http://www.w3.org/2000/svg">
<g id="intersect-square">
<g id="Icon">
<path d="M3 7.8C3 6.11984 3 5.27976 3.32698 4.63803C3.6146 4.07354 4.07354 3.6146 4.63803 3.32698C5.27976 3 6.11984 3 7.8 3H19.2C20.8802 3 21.7202 3 22.362 3.32698C22.9265 3.6146 23.3854 4.07354 23.673 4.63803C24 5.27976 24 6.11984 24 7.8V19.2C24 20.8802 24 21.7202 23.673 22.362C23.3854 22.9265 22.9265 23.3854 22.362 23.673C21.7202 24 20.8802 24 19.2 24H7.8C6.11984 24 5.27976 24 4.63803 23.673C4.07354 23.3854 3.6146 22.9265 3.32698 22.362C3 21.7202 3 20.8802 3 19.2V7.8Z" stroke="#CD4E00" stroke-width="3.75" stroke-linecap="round" stroke-linejoin="round"/>
<path d="M12 16.8C12 15.1198 12 14.2798 12.327 13.638C12.6146 13.0735 13.0735 12.6146 13.638 12.327C14.2798 12 15.1198 12 16.8 12H28.2C29.8802 12 30.7202 12 31.362 12.327C31.9265 12.6146 32.3854 13.0735 32.673 13.638C33 14.2798 33 15.1198 33 16.8V28.2C33 29.8802 33 30.7202 32.673 31.362C32.3854 31.9265 31.9265 32.3854 31.362 32.673C30.7202 33 29.8802 33 28.2 33H16.8C15.1198 33 14.2798 33 13.638 32.673C13.0735 32.3854 12.6146 31.9265 12.327 31.362C12 30.7202 12 29.8802 12 28.2V16.8Z" stroke="#CD4E00" stroke-width="3.75" stroke-linecap="round" stroke-linejoin="round"/>
</g>
</g>
</svg>
