<svg preserveAspectRatio="none" overflow="visible" style="display: block;" width="230.002" height="42.8209" viewBox="0 0 230.002 42.8209" fill="none" xmlns="http://www.w3.org/2000/svg">
<g id="Group">
<path id="Vector" fill-rule="evenodd" clip-rule="evenodd" d="M19.6851 41.0654C20.7491 40.6819 22.9068 38.3513 23.6753 36.773C23.8674 37.0827 24.1778 37.4662 24.562 37.717C25.3305 36.9057 25.7 35.4306 25.833 34.4276C26.3946 35.0176 27.3552 35.6519 27.4882 35.6962C28.8774 35.0176 29.5128 32.6575 28.3749 31.3005C28.3749 30.9169 28.8921 30.7104 29.1877 30.7104C29.5276 30.5334 30.4143 31.6692 30.9759 31.8462C31.3602 31.6692 32.04 30.4007 32.2912 28.8814C32.8085 29.2649 33.5178 29.8844 33.8873 30.5334C34.6558 30.0319 35.5277 28.8814 35.5277 27.4948C36.0893 27.7456 36.7248 27.8783 37.4933 27.8783C36.976 25.592 35.3356 22.5533 32.7937 21.4913C32.6607 21.3733 32.6607 20.7832 33.1336 20.6505C34.4489 21.034 35.9267 21.9928 37.242 21.1078C36.9908 19.7802 36.3553 18.2019 35.3356 17.0071C35.9711 17.0071 36.8578 16.6826 37.4933 16.3728C36.8578 14.7945 34.8184 13.1572 31.907 13.0244C32.04 12.9506 32.6755 12.1836 32.6755 11.6378C29.3207 12.0656 29.705 12.8326 29.1877 12.6999C29.0104 12.8326 28.3749 12.6999 28.3749 12.1836C28.3749 11.8886 30.1631 10.9151 30.7542 9.85301C30.5769 9.51374 29.8232 9.39574 29.1286 9.21873C29.3059 8.65821 29.8823 7.00613 29.8084 5.87033C28.8774 6.12109 27.769 6.75537 27.0892 7.5224C26.9709 7.13889 26.5867 6.3866 26.2024 6.12109C25.3157 6.63737 24.5472 8.40744 24.3699 8.90897C24.163 8.39269 23.6605 8.02393 23.2763 7.89117C22.5226 9.13022 22.7738 10.3988 23.5275 11.4903C22.892 11.6083 22.5226 11.9181 22.2122 12.1689C21.0743 10.2218 21.2516 7.80267 22.7147 6.10634C23.1433 6.2391 23.6605 6.41611 23.9857 6.99138C24.3699 6.2391 25.567 4.97054 26.5719 4.38051C26.9561 4.88204 27.2074 5.26555 27.3256 5.39831C28.3453 4.88204 29.6606 4.32151 31.3158 4.20351C31.4488 5.59007 31.0646 7.50765 30.7247 8.37794C31.3158 8.43694 31.9956 8.89421 32.572 9.11547C32.3799 9.49899 32.2321 10.207 31.8183 10.384C32.572 10.207 33.7691 10.384 34.4046 10.7675C34.2715 11.2838 34.0203 11.9033 33.9021 12.1541C35.6755 12.6704 37.7593 13.6292 39.2815 16.8448C38.8529 17.2726 38.1435 17.6561 37.4489 17.7299C38.3357 19.1164 38.5869 20.739 38.7199 21.9633C38.1288 22.5238 37.4489 22.7746 36.8135 22.8926C38.4539 24.8692 38.9711 27.3768 38.8529 29.7369C38.1435 29.7369 37.2568 29.6189 36.6066 29.5451C36.1336 30.8874 34.4046 32.333 33.2518 32.6428C33.2075 32.333 33.0006 31.7725 32.7494 31.5365C32.572 32.1413 31.9809 32.8493 31.4193 33.4836C31.035 33.4836 30.6065 33.2328 30.3552 32.982C30.3552 35.3126 28.833 36.773 27.6064 37.3335C27.2961 37.068 27.0448 37.0237 26.6754 36.773C26.3354 37.717 25.5374 39.0298 24.9019 39.4871C24.3403 39.3543 24.1334 39.1036 23.8231 38.8971C22.9807 40.2394 21.2073 42.0094 19.6407 42.8207C18.0594 42.0094 16.419 40.2394 15.5766 38.8971C15.2663 39.1036 15.015 39.3543 14.5126 39.4871C13.9214 39.0298 12.9904 37.717 12.7391 36.773C12.4288 37.0385 12.1776 37.0827 11.6603 37.3335C10.5667 36.773 9.00016 35.2979 9.11839 32.982C8.79326 33.2328 8.36468 33.4836 8.02477 33.4836C7.46319 32.8493 6.96071 32.1413 6.65036 31.5365C6.39913 31.7872 6.14789 32.3478 6.01488 32.6428C5.00994 32.333 3.22173 30.8874 2.7636 29.5451C2.12812 29.6189 1.31529 29.7369 0.502472 29.7369C0.502472 27.3768 0.768487 24.8692 2.58625 22.8926C1.99511 22.7746 1.31529 22.5091 0.679815 21.9633C0.753708 20.739 0.931051 19.1164 1.87688 17.7299C1.31529 17.6414 0.546808 17.2726 0 16.8448C1.6552 13.6292 3.65031 12.6704 5.51241 12.1541C5.30551 11.9033 5.00994 11.2691 5.00994 10.7675C5.64542 10.384 6.96071 10.207 7.55186 10.384C7.16761 10.207 7.09372 9.49899 6.78337 9.11547C7.34496 8.89421 8.02477 8.43694 8.54202 8.37794C8.36468 7.4929 8.02477 5.59007 8.27601 4.20351C9.81298 4.33626 10.9362 4.88204 12.1628 5.39831C12.281 5.26555 12.4731 4.88204 12.9165 4.38051C13.9067 4.97054 15.0003 6.22435 15.4436 6.99138C15.6949 6.40136 16.286 6.2391 16.7885 6.10634C18.2368 7.80267 18.3107 10.207 17.1727 12.1689C16.7885 11.9181 16.419 11.6083 15.9018 11.4903C16.5816 10.3988 16.9215 9.13022 16.1678 7.89117C15.7096 8.02393 15.2811 8.39269 15.0298 8.90897C14.7638 8.39269 14.0544 6.62261 13.2416 6.12109C12.9313 6.3866 12.4879 7.13889 12.4288 7.5224C11.6603 6.75537 10.4485 6.12109 9.67997 5.87033C9.42874 7.00613 10.0642 8.65821 10.2711 9.21873C9.67997 9.39574 8.80804 9.51374 8.63069 9.85301C9.31051 10.9151 11.0987 11.8886 10.9657 12.1836C10.9214 12.6999 10.4632 12.8179 10.079 12.6999C9.69475 12.8326 10.0199 12.0656 6.67992 11.6378C6.79815 12.1984 7.35974 12.9654 7.49274 13.0244C4.52225 13.1572 2.61581 14.8092 1.90644 16.3728C2.61581 16.6826 3.50253 17.0071 4.06411 17.0071C3.00005 18.2019 2.36457 19.795 2.29068 21.1078C3.63553 21.9928 5.0395 21.034 6.17745 20.6505C6.81293 20.7832 6.81293 21.3585 6.56169 21.4913C4.06411 22.5681 2.37935 25.592 2.03945 27.8783C2.63059 27.8783 3.3843 27.7456 3.94588 27.4948C3.94588 28.8814 4.78826 30.0319 5.54197 30.5334C5.92621 29.8991 6.67992 29.2649 7.18239 28.8814C7.49274 30.4007 8.03955 31.6692 8.37946 31.8462C9.01494 31.6692 9.96077 30.5187 10.079 30.7104C10.4632 30.7104 10.9214 30.9022 10.9214 31.3005C9.96077 32.6723 10.7884 35.0176 11.8081 35.6962C12.1923 35.6519 12.9904 35.0176 13.4337 34.4276C13.818 35.4454 14.1431 36.9205 14.9559 37.717C15.2958 37.4662 15.5914 37.0827 15.7244 36.773C16.4633 38.3513 18.7836 40.6819 19.6851 41.0654ZM32.6607 5.2803C32.6607 5.87033 32.6607 6.62261 32.6607 7.18314H35.1435V11.2838C35.9563 11.4756 36.5179 11.8738 37.2273 12.4196V5.26555H32.6607V5.2803ZM26.3798 39.7968C26.7197 39.5461 27.3404 38.661 27.6507 37.7908H35.1435V33.2771C35.9563 32.6428 36.6361 32.1413 37.2273 31.2857V39.7968H26.3798V39.7968ZM13.0347 39.7968C12.7835 39.5461 12.2219 38.661 11.7046 37.7908H4.30057V33.2771C3.53208 32.6428 2.82271 32.3478 2.32024 31.5365V39.7968H13.0347ZM6.82771 5.2803C6.82771 5.87033 6.82771 6.62261 6.82771 7.18314H4.30057V11.2838C3.66509 11.4756 3.02961 11.8738 2.32024 12.4196V5.26555H6.82771V5.2803ZM16.9658 4.0855C16.5964 4.21826 16.3303 4.0855 16.3303 3.49547C16.4633 3.27421 16.8328 3.27421 17.2171 3.27421C17.2171 3.58398 17.2171 4.0855 16.9658 4.0855ZM14.5569 1.31238C14.1727 1.38613 14.0988 1.7549 13.9658 1.94666C13.9658 2.33017 14.3057 2.46293 14.5569 2.19742C14.6751 1.93191 14.6751 1.62214 14.5569 1.31238ZM17.084 16.358C17.6456 16.2253 18.4141 16.6088 18.9166 16.8596V13.9537C18.4141 14.2045 18.1038 14.4552 17.6456 14.6617C17.5274 15.3993 17.4683 15.9745 17.084 16.358ZM19.9363 13.6439C20.3649 13.9537 21.2664 14.4552 21.8871 14.4552C22.5226 10.3988 28.9956 11.4903 27.2222 16.24C31.4636 16.5351 30.6508 22.1551 26.9709 21.9928C28.2419 24.5742 26.3798 26.0492 24.7689 26.3442C25.833 28.2471 24.8132 30.5187 22.4043 30.9022C23.6753 32.982 21.8871 35.0029 20.0693 35.0029C18.2959 35.0029 16.3451 33.2328 17.4831 30.9022C15.887 30.7104 13.4633 29.0584 15.1924 26.2262C12.9756 26.5212 10.9953 24.3234 12.2219 21.9928C8.08389 21.6093 8.66025 16.3728 12.2219 16.3728C10.4928 12.8179 15.1924 10.2365 17.2762 13.6587C17.9116 13.5407 18.3698 13.1572 18.9314 12.6999C18.9314 10.0448 19.1383 7.53715 19.2417 5.00004C18.9314 4.36576 18.3846 3.52498 18.0594 3.52498C18.1333 4.115 17.2909 5.42781 15.7688 4.73453C15.2072 4.10025 15.5175 2.78744 16.8624 2.33017C16.4781 1.31238 15.6505 1.06162 15.3402 1.13537C15.7688 1.9024 15.2219 3.42172 14.2022 3.28897C13.1825 3.08246 12.68 1.7549 13.7441 0.92886C13.1825 0.427338 12.0002 0.633847 11.4091 1.13537C11.2761 1.13537 11.0248 1.13537 11.1578 0.796104C12.1184 -0.265943 13.1825 -0.133187 14.5126 0.427338C15.6505 -0.133187 17.69 0.796104 17.9264 2.33017C18.6358 2.44818 19.4634 3.42172 19.759 4.10025C20.8969 2.33017 23.7049 0.796104 24.8428 1.9024C25.1088 2.33017 25.1088 3.42172 24.7985 2.96445C24.4142 2.46293 23.7049 2.58093 22.9511 2.78744C21.6802 3.42172 20.9117 4.115 20.4092 5.75233C19.9363 8.06818 19.9363 12.0509 19.9363 13.6439ZM22.0053 17.2431C22.892 17.2431 23.6605 17.9806 23.6605 18.8952C23.6605 19.8097 22.892 20.5472 22.0053 20.5472C21.1186 20.5472 20.3649 19.8097 20.3649 18.8952C20.3649 17.9806 21.1334 17.2431 22.0053 17.2431ZM19.5521 21.4765C20.4831 21.4765 21.2516 22.2141 21.2516 23.1286C21.2516 24.0431 20.4831 24.7659 19.5521 24.7659C18.6062 24.7659 17.8969 24.0284 17.8969 23.1286C17.8969 22.2141 18.6062 21.4765 19.5521 21.4765ZM17.084 17.2431C18.0003 17.2431 18.9166 17.9806 18.9166 18.8952C18.9166 19.8097 18.0003 20.5472 17.084 20.5472C16.1826 20.5472 15.488 19.8097 15.488 18.8952C15.488 17.9806 16.1826 17.2431 17.084 17.2431ZM24.7541 12.9359C25.6852 12.9359 26.3798 13.7177 26.3798 14.588C26.3798 15.4435 25.7 16.24 24.7541 16.24C23.8083 16.24 23.025 15.4435 23.025 14.588C23.025 13.7177 23.8083 12.9359 24.7541 12.9359ZM12.2219 17.2431C13.1086 17.2431 13.8475 17.9806 13.8475 18.8952C13.8475 19.8097 13.1086 20.5472 12.2219 20.5472C11.3352 20.5472 10.4928 19.8097 10.4928 18.8952C10.4928 17.9806 11.3204 17.2431 12.2219 17.2431ZM14.6751 21.4765C15.621 21.4765 16.3303 22.2141 16.3303 23.1286C16.3303 24.0431 15.621 24.7659 14.6751 24.7659C13.7441 24.7659 13.0199 24.0284 13.0199 23.1286C13.0347 22.2141 13.7441 21.4765 14.6751 21.4765ZM27.3404 17.2431C28.1975 17.2431 28.8774 17.9806 28.8774 18.8952C28.8774 19.8097 28.2123 20.5472 27.3404 20.5472C26.4832 20.5472 25.567 19.8097 25.567 18.8952C25.567 17.9806 26.4832 17.2431 27.3404 17.2431ZM24.3847 21.4765C25.2714 21.4765 26.2172 22.2731 26.2172 23.1286C26.2172 23.9841 25.2714 24.7659 24.3847 24.7659C23.498 24.7659 22.9068 23.9694 22.9068 23.1286C22.9068 22.2583 23.4832 21.4765 24.3847 21.4765ZM22.227 25.9607C23.158 25.9607 24.0004 26.7278 24.0004 27.6128C24.0004 28.4978 23.158 29.2649 22.227 29.2649C21.2812 29.2649 20.5718 28.4978 20.5718 27.6128C20.5718 26.713 21.2812 25.9607 22.227 25.9607ZM19.9363 30.3122C20.7935 30.3122 21.6359 30.9759 21.6359 31.8462C21.6359 32.7018 20.7935 33.4836 19.9363 33.4836C19.0644 33.4836 18.355 32.687 18.355 31.8462C18.355 30.9759 19.0644 30.3122 19.9363 30.3122ZM17.4683 25.9607C18.3993 25.9607 19.1087 26.7278 19.1087 27.6128C19.1087 28.4978 18.3993 29.2649 17.4683 29.2649C16.5225 29.2649 15.7392 28.4978 15.7392 27.6128C15.754 26.713 16.5372 25.9607 17.4683 25.9607ZM14.6751 12.9359C15.5619 12.9359 16.3303 13.7177 16.3303 14.588C16.3303 15.4435 15.5619 16.24 14.6751 16.24C13.7884 16.24 13.0199 15.4435 13.0199 14.588C13.0347 13.7177 13.7884 12.9359 14.6751 12.9359ZM19.9363 14.6617C19.9363 15.6795 19.9363 16.24 20.291 16.8891C20.6752 16.3875 21.6359 16.24 22.0053 16.24C22.0053 16.1073 21.8723 15.7238 21.8723 15.3993C21.2516 15.2665 20.5718 15.1337 19.9363 14.6617Z" fill="#737373"/>
<path id="Vector_2" fill-rule="evenodd" clip-rule="evenodd" d="M68.2919 3.34822C69.2525 3.34822 70.021 4.11525 70.021 5.07405C70.021 6.03284 69.2525 6.79987 68.2919 6.79987C67.3313 6.79987 66.5628 6.03284 66.5628 5.07405C66.5628 4.11525 67.3313 3.34822 68.2919 3.34822ZM46.5969 12.9066H49.8039C50.6463 12.8034 49.9812 9.51399 47.7201 9.51399C46.3605 9.51399 45.7398 11.0923 45.7398 12.3461C45.7545 12.7886 46.2422 12.9066 46.5969 12.9066ZM48.06 19.2494C45.2816 19.2494 42.9909 17.0073 42.9909 14.2195C42.9909 11.4021 44.3949 8.36344 48.5329 8.36344C50.5871 8.36344 52.5823 10.517 52.5823 12.5821C52.5823 13.0541 51.9172 13.9687 50.129 13.9687H45.9762C45.9762 16.0633 47.4097 17.7449 49.5674 17.7449C50.7497 17.7449 51.0009 17.5974 51.9616 16.9483L52.2128 17.4203C51.2226 18.8217 50.129 19.2494 48.06 19.2494ZM60.9322 11.6233C60.8878 10.4875 59.4247 9.79425 58.6415 9.79425C56.7646 9.79425 55.8927 11.6676 55.8927 13.2017C55.8927 14.6472 56.2917 17.3613 58.4641 17.3613C59.4247 17.3613 60.9322 16.5796 60.9322 15.3405V11.6233V11.6233ZM61.0504 19.0724C60.7991 18.6299 60.6957 17.9661 60.6957 17.4203C59.6316 18.6741 59.1439 19.2494 57.4592 19.2494C54.9173 19.2494 53.3212 16.6533 53.1882 14.544C53.0847 13.3049 54.001 10.7088 54.7399 10.104C56.336 8.79121 58.6267 8.31919 60.9174 8.93872V6.07709C60.9174 4.74953 60.3262 4.94129 59.1587 4.94129V4.24801C60.6366 3.953 62.1736 3.65798 63.2376 2.9647L63.6366 3.33347C63.6366 4.38076 63.5332 6.15084 63.5332 6.63762V16.9483C63.5332 17.6859 63.9322 17.9514 65.0258 17.9514V19.0134L61.0504 19.0724ZM65.4101 19.0134L65.3362 17.9514C66.6662 17.9514 67.0948 17.9071 67.0948 16.7713V11.8151C67.0948 10.4728 66.7401 10.281 65.4101 10.281V9.36648C67.1983 9.36648 68.0554 9.36649 69.5481 8.34869L69.8584 8.59945V16.7123C69.8584 17.6711 70.5826 17.9366 71.4693 17.9366V18.9987C69.489 19.0134 67.3904 19.0134 65.4101 19.0134ZM72.8437 10.9006H71.5432L71.5136 10.0155C71.9718 10.0008 72.7255 9.97126 72.8437 9.51399V6.3131C73.5974 6.3131 75.4447 5.04454 75.696 5.00029L75.8438 5.2363L75.696 9.49924L78.1935 9.42549L78.1492 10.8858H75.696V15.901C75.696 17.4351 76.9078 18.3201 78.5926 17.6268L78.696 18.0399C77.9128 19.0282 77.2921 19.2199 75.4891 19.2199C73.6122 19.2199 72.8733 17.9366 72.8733 16.5353V10.9006H72.8437ZM89.1445 19.0134V17.9514C90.0755 18.0251 90.7406 17.9071 90.7406 16.491V11.6528C90.7406 10.1925 89.9425 10.2958 89.1445 10.281V9.36648C90.8736 9.36648 92.1298 8.89446 92.9278 8.51095L93.3712 8.6142V10.7678L94.6569 9.30748C95.1003 8.79121 96.1791 8.12743 96.9476 8.6142L96.7259 11.6233L96.3417 11.8151C96.3417 10.6793 93.3564 10.8563 93.3564 12.9066V16.5058C93.3564 17.6268 94.0214 18.0546 95.3367 17.9661V19.0282H89.1445V19.0134ZM83.5138 9.51399C81.5483 9.51399 81.1197 12.4051 81.1197 13.8359C81.1197 15.429 81.5926 18.3349 83.4695 18.3349C85.3464 18.3349 85.6715 15.3257 85.6715 13.9687C85.6715 11.1218 84.77 9.51399 83.5138 9.51399ZM78.2379 13.9687C78.2379 10.6645 80.1 8.36344 83.5286 8.36344C86.839 8.36344 88.6716 10.5613 88.6716 13.7917C88.6716 17.3908 87.1198 19.3674 83.4252 19.3674C79.9226 19.3674 78.2379 17.3171 78.2379 13.9687ZM102.711 13.9687C101.588 13.9687 99.726 14.6767 99.726 16.0338C99.726 16.7713 99.992 17.5088 100.864 17.5088C102.076 17.5088 102.401 17.0368 102.726 16.491V13.9687H102.711ZM102.711 17.6416C101.78 18.6741 100.731 19.2347 99.253 19.2347C97.8639 19.2347 96.9476 18.0694 96.9476 16.7123C96.9476 14.0719 100.554 13.2607 102.711 13.0394V12.1101C102.711 10.0598 100.982 9.76475 99.6225 10.0598C99.4895 10.0893 98.7653 10.458 98.6767 11.3578L97.9082 11.2841C97.9082 10.7678 97.9082 10.1778 97.9082 9.691C98.8984 8.73221 100.701 8.34869 101.765 8.34869C104.086 8.34869 105.327 10.7235 105.327 12.2429V17.4056C105.327 17.6269 105.874 17.9514 106.465 17.9514V19.0134L103.051 19.0429C102.8 18.7184 102.652 18.2611 102.711 17.6416Z" fill="#737373"/>
<path id="Vector_3" fill-rule="evenodd" clip-rule="evenodd" d="M218.947 33.2035C220.307 33.2035 221.74 33.2035 223.1 33.2035L221.002 27.6278L218.947 33.2035ZM221.253 24.3974H222.642L228.568 38.0417C228.746 38.3957 229.455 38.7055 229.987 38.7055L230.002 39.502C227.711 39.502 225.435 39.502 223.1 39.502V38.7055C224.297 38.7055 224.741 38.3367 224.563 37.7467L223.588 34.4426C221.903 34.4426 220.218 34.4426 218.519 34.4426L217.351 37.4369C216.952 38.5137 218.046 38.7203 218.888 38.7203V39.5168H214.041V38.7203C214.735 38.7203 215.105 38.7055 215.696 37.791L221.253 24.3974ZM159.079 33.2035C160.439 33.2035 161.872 33.2035 163.232 33.2035L161.119 27.6278L159.079 33.2035ZM161.385 24.3974H162.774L168.848 38.3367C168.848 38.3367 169.764 38.7055 170.134 38.7055V39.502C167.828 39.502 165.552 39.502 163.232 39.502V38.7055L164.533 38.6613C164.991 38.6318 164.932 38.145 164.932 38.263L163.705 34.4278C162.02 34.4278 160.335 34.4278 158.636 34.4278L157.468 37.4222C157.468 37.4222 157.291 38.381 157.572 38.5875C157.838 38.7793 158.562 38.8235 158.976 38.7793L159.005 39.4873H154.158V38.6907C154.853 38.6907 155.222 38.676 155.813 37.7615L161.385 24.3974ZM47.9147 33.2035C49.2743 33.2035 50.7079 33.2035 52.0675 33.2035L49.9689 27.6278L47.9147 33.2035ZM50.2054 24.3974H51.5798L57.6686 38.3367C57.6686 38.3367 57.8459 38.6907 58.1711 38.6907L58.91 38.7055L58.9543 39.502C56.6636 39.502 54.3877 39.502 52.0527 39.502V38.7055C53.4862 38.7055 53.7079 38.3072 53.634 37.9975L52.5256 34.4426C50.8409 34.4426 49.1561 34.4426 47.4566 34.4426L46.2891 37.4369C46.1117 37.909 46.9245 38.9415 47.826 38.8383V39.502H42.9787V38.7055C43.6733 38.7055 44.0427 38.6908 44.6339 37.7762L50.2054 24.3974ZM48.964 23.1141L51.831 20.0312C52.0527 19.8099 52.5256 19.3379 52.5256 19.3379C53.1611 18.7036 54.1956 19.3084 54.1956 20.1492C54.1956 20.5917 53.2941 21.2555 53.1907 21.3145L49.8803 23.1141H48.964ZM59.5011 39.502V38.7055C60.4322 38.6908 61.3337 38.6022 61.3485 37.4517L61.4815 27.613C61.511 25.5922 61.2598 25.4152 59.5159 25.4152V24.6186C62.0874 24.6186 64.6293 24.6186 67.2008 24.6186C69.521 24.6186 72.0186 25.0906 72.0186 27.8195C72.0186 29.6486 70.4816 31.3154 68.7082 31.8022L72.0925 36.9649C72.4915 37.555 73.1861 38.8825 74.1172 38.9415V39.4873L70.0235 39.5168L66.4175 33.7493C66.1958 33.351 65.5751 32.4807 65.1318 32.0382V31.6694C67.4225 31.6694 68.8116 30.5779 68.8116 28.3948C68.8116 26.8902 67.4225 25.7544 65.9594 25.7544H64.4224V37.4222C64.4224 37.909 64.984 38.7055 66.4027 38.7055V39.502C64.2007 39.502 61.7327 39.502 59.5011 39.502ZM103.748 39.502V38.7055C104.694 38.6908 105.581 38.6022 105.61 37.4517L105.729 27.613C105.758 25.5922 105.507 25.4152 103.748 25.4152V24.6186C106.32 24.6186 108.876 24.6186 111.433 24.6186C113.753 24.6186 116.266 25.0906 116.266 27.8195C116.266 29.6486 114.729 31.3154 112.955 31.8022L116.34 36.9649C116.739 37.555 117.433 38.8825 118.364 38.9415V39.4873L114.256 39.5168L110.65 33.7493C110.428 33.351 109.807 32.4807 109.364 32.0382V31.6694C111.655 31.6694 113.044 30.5779 113.044 28.3948C113.044 26.8902 111.655 25.7544 110.206 25.7544H108.67V37.4222C108.67 37.909 109.231 38.7055 110.635 38.7055V39.502C108.448 39.502 105.965 39.502 103.748 39.502ZM183.464 39.8708L180.021 32.053L178.158 27.3918C177.759 26.3297 177.316 25.4299 176.001 25.4299V24.6334H182.976V25.4299C181.897 25.3562 180.774 25.4447 181.469 26.9345L185.149 36.2126L187.986 29.0881C188.252 28.4243 188.829 26.9345 188.829 26.2264C188.829 25.3119 187.691 25.4447 187.07 25.4447V24.6481H192.139V25.4447C191.104 25.4447 190.779 26.0052 190.439 26.8017L185.045 39.9003H183.464V39.8708ZM80.0729 39.8708L76.6295 32.053L74.7822 27.3918C74.3832 26.3297 73.9398 25.4299 72.6245 25.4299V24.6334H79.6V25.4299C78.5064 25.3562 77.398 25.4447 78.0926 26.9345L81.7872 36.2126L84.6247 29.0881C84.8907 28.4243 85.4671 26.846 85.4671 26.1232C85.4671 25.8872 85.3193 25.6512 85.2159 25.6512C85.0829 25.4299 84.5508 25.4299 83.7085 25.4299V24.6334H88.7775V25.4299C87.7282 25.4299 87.4179 25.9904 87.0632 26.787L81.6838 39.8856H80.0729V39.8708ZM95.6643 38.7055C99.3442 38.7055 100.586 35.1063 100.586 32.053C100.586 28.9111 99.5954 25.1644 95.753 25.1644C92.2653 25.1644 90.7431 28.7636 90.7431 31.7284C90.7431 34.5606 92.1323 38.7055 95.6643 38.7055ZM87.5213 32.053C87.5213 27.1705 90.9056 24.1614 95.7087 24.1614C100.275 24.1614 103.793 26.787 103.793 31.5072C103.793 36.9797 100.97 39.8708 95.6348 39.8708C90.9204 39.8708 87.5213 36.7437 87.5213 32.053ZM119.162 39.502L119.148 39.0005C120.005 39.0005 120.315 37.909 120.315 37.3337V27.4655C120.315 25.9904 120.123 25.4299 118.482 25.4299V24.6334H129.596L129.818 27.9375H128.901C128.901 26.9197 128.133 25.8872 127.512 25.8577L123.655 25.7544V31.1237H126.374C127.527 31.1237 127.763 30.2829 127.763 29.2946H128.576V34.1033H127.763C127.763 33.2183 127.291 32.3037 126.478 32.2005L123.655 32.1857V38.322L127.069 38.2482C128.606 38.2187 129.286 37.6582 129.36 35.9619H130.276L129.951 39.4873H119.162V39.502ZM208.898 38.263C211.484 37.7172 212.903 34.2361 212.903 31.7284C212.903 27.9523 210.73 25.7544 206.918 25.7544C206.282 25.7544 205.558 25.7249 204.893 25.8577V38.3367C205.528 38.8088 207.952 38.4695 208.898 38.263ZM200.607 39.502V38.9858C201.11 38.9858 201.449 38.6317 201.449 38.1007V27.2442C201.449 25.8577 201.257 25.4152 199.691 25.4152V24.6186H207.834C212.4 24.6186 216.11 26.3887 216.11 31.1237C216.11 37.2304 211.528 39.4873 206.223 39.4873H200.607V39.502ZM148.779 38.263C151.468 38.1597 152.784 34.2361 152.784 31.7284C152.784 27.9523 150.611 25.7544 146.798 25.7544C146.163 25.7544 145.439 25.7249 144.774 25.8577V38.3367C145.424 38.8088 148.158 38.2925 148.779 38.263ZM140.503 39.502V39.089C140.99 39.089 141.301 38.6317 141.33 38.3367V27.2442C141.33 25.8577 141.138 25.4152 139.572 25.4152V24.6186H147.715C152.281 24.6186 155.991 26.3887 155.991 31.1237C155.991 37.2304 151.409 39.4873 146.104 39.4873H140.503V39.502ZM192.39 39.502V38.7055C193.853 38.7055 194.06 38.1597 194.09 37.0534V27.2442C194.09 26.0347 193.676 25.4152 192.39 25.4152V24.6186H199.233V25.4152C197.681 25.4152 197.459 25.8577 197.459 27.3623V37.1567C197.459 38.204 197.829 38.7055 199.233 38.7055V39.502H192.39Z" fill="#737373"/>
</g>
</svg>
