<svg preserveAspectRatio="none" overflow="visible" style="display: block;" width="90.2266" height="35.9765" viewBox="0 0 90.2266 35.9765" fill="none" xmlns="http://www.w3.org/2000/svg">
<g id="Group">
<path id="Vector" d="M15.6076 0.105493H22.9291C22.9291 0.105493 22.9291 15.9574 22.9291 19.2512C22.9291 22.545 21.5163 29.4553 11.3598 29.4553C1.20324 29.4553 0.105493 23.0196 0.105493 19.4126V15.8815H7.18835C7.18835 15.8815 7.18835 17.2199 7.18835 19.3366C7.18835 21.4534 8.6011 23.4183 11.2834 23.4183C13.9562 23.4183 15.6171 21.928 15.6171 19.4126V0.105493H15.6076Z" fill="#737373"/>
<path id="Vector_2" d="M15.6076 0.105493H22.9291C22.9291 0.105493 22.9291 15.9574 22.9291 19.2512C22.9291 22.545 21.5163 29.4553 11.3598 29.4553C1.20324 29.4553 0.105493 23.0196 0.105493 19.4126V15.8815H7.18835C7.18835 15.8815 7.18835 17.2199 7.18835 19.3366C7.18835 21.4534 8.6011 23.4183 11.2834 23.4183C13.9562 23.4183 15.6171 21.928 15.6171 19.4126V0.105493H15.6076Z" stroke="#737373" stroke-width="0.210986" stroke-miterlimit="3.864"/>
<path id="Vector_3" d="M38.3554 16.3466C38.3554 14.3817 37.2577 12.5023 34.7376 12.5023C32.294 12.5023 31.4349 14.2298 31.4349 16.3466H38.3554ZM34.2604 8.10738C40.0068 8.10738 45.0469 10.3001 45.0469 20.4282H31.4253C31.4253 23.6461 32.7617 24.975 35.129 24.975C37.4868 24.975 38.2791 23.0955 38.2791 23.0955H44.9706C44.9706 26.0001 40.9518 29.9204 34.8904 29.8444C27.9602 29.8444 24.5811 24.7471 24.5811 19.4885C24.5811 14.2298 27.5689 8.10738 34.2604 8.10738Z" fill="#737373"/>
<path id="Vector_4" d="M60.2422 16.3466C60.2422 14.3817 59.1445 12.5023 56.6244 12.5023C54.1807 12.5023 53.3216 14.2298 53.3216 16.3466H60.2422ZM56.1471 8.10738C61.8936 8.10738 66.9337 10.3001 66.9337 20.4282H53.3121C53.3121 23.6461 54.6485 24.975 57.0158 24.975C59.3735 24.975 60.1658 23.0955 60.1658 23.0955H66.8573C66.8573 26.0001 62.8386 29.9204 56.7771 29.8444C49.847 29.8444 46.4679 24.7471 46.4679 19.4885C46.4583 14.2298 49.4556 8.10738 56.1471 8.10738Z" fill="#737373"/>
<path id="Vector_5" d="M75.3452 19.2513C75.2688 23.257 76.1279 25.3737 79.4402 25.3737C82.743 25.3737 83.2203 21.7667 83.2203 19.014C83.2203 16.2707 82.5903 13.6034 79.1252 13.6034C76.9966 13.6034 75.4215 15.2456 75.3452 19.2513ZM68.6537 35.967V8.89531H75.4215C75.4215 8.89531 75.4215 11.2778 75.4215 11.9803C75.6697 11.4582 75.8415 11.0975 76.3665 10.4615C76.8247 9.91097 78.0943 8.34476 81.483 8.34476C84.8717 8.34476 90.1409 10.6988 90.1409 19.014C90.1409 25.4496 86.9908 30.1578 81.5594 30.1578C78.5716 30.1578 77.2257 29.1231 76.4429 28.5061C75.9465 28.117 75.7843 27.9366 75.4979 27.5664C75.4979 28.1169 75.4979 35.967 75.4979 35.967H68.6537Z" fill="#737373"/>
<path id="Vector_6" fill-rule="evenodd" clip-rule="evenodd" d="M88.174 32.8251C88.4508 32.8251 88.6513 32.8535 88.7849 32.901C89.014 32.9959 89.1285 33.1858 89.1285 33.461C89.1285 33.6604 89.0522 33.8028 88.909 33.8977C88.8326 33.9451 88.7276 33.9831 88.5844 34.0021C88.7563 34.0306 88.8899 34.1065 88.9663 34.2204C89.0426 34.3343 89.0904 34.4482 89.0904 34.5621V34.7235C89.0904 34.771 89.0904 34.8279 89.0999 34.8849C89.0999 34.9418 89.1095 34.9798 89.119 34.9988L89.1285 35.0272H88.7658C88.7658 35.0178 88.7658 35.0083 88.7563 35.0083C88.7563 34.9988 88.7563 34.9893 88.7467 34.9798L88.7372 34.9039V34.752C88.7372 34.4957 88.6704 34.3248 88.5272 34.2394C88.4413 34.1919 88.2981 34.1635 88.0881 34.1635H87.7826V35.0367H87.3912V32.8251H88.174V32.8251ZM88.594 33.1763C88.4985 33.1193 88.3363 33.0908 88.1263 33.0908H87.7922V33.8977H88.1453C88.3076 33.8977 88.4317 33.8787 88.5176 33.8502C88.6704 33.7933 88.7467 33.6699 88.7467 33.5085C88.7372 33.3376 88.6895 33.2332 88.594 33.1763ZM89.644 35.3785C89.2526 35.7771 88.7754 35.9765 88.2122 35.9765C87.649 35.9765 87.1717 35.7771 86.7803 35.3785C86.389 34.9798 86.1885 34.5052 86.1885 33.9451C86.1885 33.3946 86.389 32.92 86.7803 32.5213C87.1717 32.1321 87.649 31.9328 88.2026 31.9328C88.7658 31.9328 89.2431 32.1321 89.6345 32.5213C90.0258 32.9105 90.2263 33.3851 90.2263 33.9451C90.2358 34.5052 90.0449 34.9798 89.644 35.3785ZM86.9808 32.7112C86.6467 33.0529 86.4749 33.461 86.4749 33.9357C86.4749 34.4198 86.6467 34.8279 86.9808 35.1696C87.3149 35.5114 87.7253 35.6822 88.2122 35.6822C88.699 35.6822 89.1095 35.5114 89.4436 35.1696C89.7777 34.8279 89.9495 34.4198 89.9495 33.9357C89.9495 33.4516 89.7777 33.0434 89.4436 32.7112C89.0999 32.3694 88.6895 32.1986 88.2122 32.1986C87.7349 32.1986 87.3244 32.3694 86.9808 32.7112Z" fill="#737373"/>
</g>
</svg>
